:SAMPLES-PER-SECOND 30
:FULLY-SPECIFIED
:DEGREES
1
root  84.2029 40.3733 -3.97637 179.579 -87.2329 -178.45
RightUpLeg  -3.8081 -7.9082 -5.67064
RightLeg  2.45689 -2.53719 3.5806
RightFoot  0.8137 -0.0017043 0.0445412
RightToes  4.07452e-010 0 -3.6325e-017
Spine  4.98102 -0.849526 0.84982
Spine1  -0.660858 -0.523567 -1.92584
HEad  -4.13088 5.15141 0.756657
LeftShoulder1  0.508149 1.1693 -14.5639
LeftArm  -17.0918 14.0374 -3.98162
LeftForeArm  10.2825 -3.52334 -1.47067
LeftHand  -0.244104 0.0205437 5.32207
RightShoulder  0.966734 1.74826 11.2541
RightArm  -17.6015 -0.868763 2.73965
RightForeArm  5.28462 2.32519 3.74533
RightHand  -1.20414 3.94085 -15.166
LeftUpLeg  -2.48522 6.42402 4.15529
LeftLeg  2.06772 15.092 -4.68549
LeftFoot  -1.29278 -0.0176376 0.381581
LeftToes  1.0186e-010 1.09309e-010 2.97394e-011
2
root  84.1869 40.3737 -3.96999 -179.443 -87.2114 -179.409
RightUpLeg  -3.82991 -7.95947 -5.7386
RightLeg  2.51026 -2.4449 3.58874
RightFoot  0.769764 -0.00319539 0.067692
RightToes  4.07452e-010 0 -3.6325e-017
Spine  4.91712 -0.791747 0.695453
Spine1  -0.633918 -0.507519 -1.69962
HEad  -4.19195 5.13348 0.713835
LeftShoulder1  0.538559 1.05319 -14.8103
LeftArm  -16.9509 14.1071 -3.77238
LeftForeArm  10.1576 -3.57929 -1.51821
LeftHand  -0.244104 0.0205437 5.32207
RightShoulder  0.9549 1.71833 11.1194
RightArm  -17.6004 -0.940644 2.7942
RightForeArm  4.86392 2.36368 3.76222
RightHand  -1.17267 3.59322 -15.3293
LeftUpLeg  -2.47193 6.38896 4.09838
LeftLeg  2.04281 15.1378 -4.69366
LeftFoot  -1.3012 -0.0142134 0.328366
LeftToes  1.0186e-010 1.09309e-010 2.97394e-011
3
root  84.159 40.3754 -3.95988 -178.495 -87.2122 179.675
RightUpLeg  -3.8413 -8.01569 -5.8133
RightLeg  2.55973 -2.37044 3.59579
RightFoot  0.723279 -0.00576466 0.100918
RightToes  4.07452e-010 0 -3.6325e-017
Spine  4.72317 -0.740011 0.51081
Spine1  -0.410759 -0.50822 -1.41056
HEad  -4.36299 5.03388 0.694593
LeftShoulder1  0.553795 1.01281 -15.0925
LeftArm  -16.8142 14.1078 -3.61015
LeftForeArm  10.0754 -3.68862 -1.58441
LeftHand  -0.244104 0.0205437 5.32207
RightShoulder  0.927089 1.61484 10.926
RightArm  -17.7073 -0.923144 2.9585
RightForeArm  4.32906 2.32814 3.74827
RightHand  -1.12242 3.04201 -15.6055
LeftUpLeg  -2.4511 6.35331 4.03666
LeftLeg  2.00561 15.1577 -4.70709
LeftFoot  -1.29479 -0.0138167 0.322201
LeftToes  1.0186e-010 1.09309e-010 2.97394e-011
4
root  84.1329 40.3774 -3.95213 -178.342 -87.2361 179.53
RightUpLeg  -3.80535 -8.00059 -5.82439
RightLeg  2.55764 -2.4073 3.56083
RightFoot  0.700239 -0.00953347 0.137229
RightToes  4.07452e-010 0 -3.6325e-017
Spine  4.52162 -0.690354 0.316567
Spine1  -0.0898591 -0.520802 -1.07315
HEad  -4.5439 4.89127 0.674974
LeftShoulder1  0.562792 1.00175 -15.3739
LeftArm  -16.7014 14.0555 -3.49766
LeftForeArm  9.95176 -3.79201 -1.65277
LeftHand  -0.244104 0.0205437 5.32207
RightShoulder  0.891646 1.46421 10.743
RightArm  -17.8752 -0.826219 3.11788
RightForeArm  4.26627 2.17986 3.68627
RightHand  -1.10325 2.82524 -15.7328
LeftUpLeg  -2.41514 6.35215 4.02439
LeftLeg  1.99226 15.1217 -4.72154
LeftFoot  -1.28634 -0.0156015 0.349939
LeftToes  1.0186e-010 1.09309e-010 2.97394e-011
5
root  84.1105 40.3781 -3.94615 -178.469 -87.2509 179.649
RightUpLeg  -3.74763 -7.94057 -5.80305
RightLeg  2.52434 -2.48562 3.49487
RightFoot  0.682734 -0.012895 0.174862
RightToes  4.07452e-010 0 -3.6325e-017
Spine  4.31399 -0.605468 0.0966117
Spine1  0.275675 -0.509241 -0.68185
HEad  -4.68209 4.77621 0.628851
LeftShoulder1  0.603886 0.854656 -15.7181
LeftArm  -16.5718 14.0337 -3.2969
LeftForeArm  9.68221 -3.78026 -1.70468
LeftHand  -0.244104 0.0205437 5.32207
RightShoulder  0.864023 1.34478 10.6007
RightArm  -18.0672 -0.797954 3.1528
RightForeArm  5.00263 1.99389 3.56775
RightHand  -1.14833 3.27462 -15.5504
LeftUpLeg  -2.36597 6.36114 4.03061
LeftLeg  1.9837 15.0885 -4.73342
LeftFoot  -1.29573 -0.0155915 0.349784
LeftToes  1.0186e-010 1.09309e-010 2.97394e-011
6
root  84.0867 40.3782 -3.93801 -178.152 -87.2674 179.361
RightUpLeg  -3.72796 -7.92493 -5.81845
RightLeg  2.49935 -2.51403 3.46103
RightFoot  0.651973 -0.0154821 0.202126
RightToes  4.07452e-010 0 -3.6325e-017
Spine  3.99389 -0.50212 -0.150255
Spine1  0.729532 -0.484832 -0.264885
HEad  -4.71256 4.49898 0.668494
LeftShoulder1  0.672279 0.593458 -16.0802
LeftArm  -16.5115 14.0389 -3.05656
LeftForeArm  9.42117 -3.60256 -1.69413
LeftHand  -0.244104 0.0205437 5.32207
RightShoulder  0.854566 1.31983 10.4852
RightArm  -18.2825 -0.90675 3.08819
RightForeArm  6.19926 1.87029 3.41264
RightHand  -1.22811 4.09434 -15.2189
LeftUpLeg  -2.34153 6.33266 3.99575
LeftLeg  1.93956 15.0995 -4.73618
LeftFoot  -1.31288 -0.0151847 0.343461
LeftToes  1.0186e-010 1.09309e-010 2.97394e-011
7
root  84.0616 40.378 -3.92769 -177.431 -87.3222 178.722
RightUpLeg  -3.77073 -7.9743 -5.87703
RightLeg  2.51119 -2.51188 3.47925
RightFoot  0.60465 -0.0174879 0.221887
RightToes  4.07452e-010 0 -3.6325e-017
Spine  3.68028 -0.430079 -0.426415
Spine1  1.08693 -0.49706 0.171101
HEad  -4.63811 4.31689 0.664931
LeftShoulder1  0.729278 0.379605 -16.366
LeftArm  -16.5712 14.0766 -2.90421
LeftForeArm  9.33853 -3.40518 -1.62456
LeftHand  -0.244104 0.0205437 5.32207
RightShoulder  0.862708 1.39409 10.3718
RightArm  -18.391 -1.10888 3.00575
RightForeArm  6.78287 1.86936 3.32348
RightHand  -1.25976 4.4261 -15.0944
LeftUpLeg  -2.37562 6.26388 3.91809
LeftLeg  1.88005 15.1259 -4.72267
LeftFoot  -1.32747 -0.0167502 0.367791
LeftToes  1.0186e-010 1.09309e-010 2.97394e-011
8
root  84.0418 40.3777 -3.91891 -176.834 -87.3972 178.211
RightUpLeg  -3.84407 -8.02245 -5.92666
RightLeg  2.56913 -2.53632 3.49922
RightFoot  0.548777 -0.0198518 0.248595
RightToes  4.07452e-010 0 -3.6325e-017
Spine  3.63637 -0.378828 -0.719234
Spine1  1.06674 -0.534051 0.625733
HEad  -4.51374 4.30443 0.572785
LeftShoulder1  0.769689 0.235786 -16.604
LeftArm  -16.5889 14.1991 -2.77599
LeftForeArm  9.32813 -3.385 -1.58692
LeftHand  -0.244104 0.0205437 5.32207
RightShoulder  0.873144 1.47996 10.2675
RightArm  -18.234 -1.32578 2.91823
RightForeArm  6.07833 1.98455 3.39051
RightHand  -1.1943 3.77053 -15.3193
LeftUpLeg  -2.44364 6.20199 3.85086
LeftLeg  1.86267 15.1324 -4.70104
LeftFoot  -1.35596 -0.0181 0.388768
LeftToes  1.0186e-010 1.09309e-010 2.97394e-011
9
root  84.0279 40.3775 -3.91316 -176.674 -87.4255 178.098
RightUpLeg  -3.90236 -8.02495 -5.93691
RightLeg  2.6387 -2.56402 3.48726
RightFoot  0.505232 -0.0219932 0.273104
RightToes  4.07452e-010 0 -3.6325e-017
Spine  3.83362 -0.296023 -0.97819
Spine1  0.76861 -0.531535 1.05154
HEad  -4.45878 4.27123 0.494659
LeftShoulder1  0.820002 0.0616709 -16.909
LeftArm  -16.4109 14.3667 -2.51288
LeftForeArm  9.20206 -3.50302 -1.64159
LeftHand  -0.244104 0.0205437 5.32207
RightShoulder  0.864444 1.45461 10.1717
RightArm  -17.9104 -1.45756 2.84501
RightForeArm  4.81238 2.13268 3.5498
RightHand  -1.08086 2.69353 -15.6614
LeftUpLeg  -2.48828 6.18648 3.83033
LeftLeg  1.88714 15.1324 -4.695
LeftFoot  -1.40949 -0.0171398 0.373846
LeftToes  1.0186e-010 1.09309e-010 2.97394e-011
10
root  84.0116 40.3778 -3.90859 -176.942 -87.3931 178.398
RightUpLeg  -3.92293 -8.00405 -5.92055
RightLeg  2.64662 -2.55483 3.4716
RightFoot  0.497132 -0.0227038 0.276523
RightToes  4.07452e-010 0 -3.6325e-017
Spine  3.91303 -0.182398 -1.17721
Spine1  0.660665 -0.486438 1.419
HEad  -4.51307 4.1048 0.48811
LeftShoulder1  0.878471 -0.132254 -17.2889
LeftArm  -16.2127 14.42 -2.18635
LeftForeArm  9.02284 -3.52461 -1.70399
LeftHand  -0.244104 0.0205437 5.32207
RightShoulder  0.828395 1.28317 10.0268
RightArm  -17.7004 -1.42313 2.87781
RightForeArm  4.2345 2.21671 3.65658
RightHand  -1.01966 2.19058 -15.7358
LeftUpLeg  -2.49722 6.21673 3.85089
LeftLeg  1.90584 15.1335 -4.71825
LeftFoot  -1.46691 -0.0162667 0.360277
LeftToes  1.0186e-010 1.09309e-010 2.97394e-011
11
root  83.9871 40.3788 -3.90309 -177.418 -87.3721 178.93
RightUpLeg  -3.9098 -7.99443 -5.90423
RightLeg  2.56749 -2.54615 3.48354
RightFoot  0.51416 -0.0228861 0.272732
RightToes  4.07452e-010 0 -3.6325e-017
Spine  3.70055 -0.120092 -1.28596
Spine1  0.935786 -0.470184 1.64956
HEad  -4.57995 4.02399 0.486592
LeftShoulder1  0.905087 -0.205031 -17.5565
LeftArm  -16.2746 14.315 -2.05588
LeftForeArm  8.98754 -3.38935 -1.6649
LeftHand  -0.244104 0.0205437 5.32207
RightShoulder  0.78959 1.09685 9.86846
RightArm  -17.6864 -1.27622 3.00167
RightForeArm  4.51798 2.22436 3.67714
RightHand  -1.04623 2.54587 -15.4482
LeftUpLeg  -2.51576 6.26115 3.88401
LeftLeg  1.91913 15.102 -4.75081
LeftFoot  -1.50596 -0.017084 0.372979
LeftToes  1.0186e-010 1.09309e-010 2.97394e-011
